<?xml version="1.0" standalone="no"?><svg xmlns:xlink="http://www.w3.org/1999/xlink" xmlns="http://www.w3.org/2000/svg" viewBox="0 0 1000 562.4989735420191" preserveAspectRatio="xMaxYMax slice"><g transform="scale(0.8211663847328746)"><rect x="0" y="0" width="1293.888888888889" height="685" fill="#fbfcfe"/><rect x="304.44444444444446" y="76.11111111111111" width="76.11111111111111" height="76.11111111111111" fill="#fbfcfe"/><rect x="532.7777777777778" y="76.11111111111111" width="76.11111111111111" height="76.11111111111111" fill="#fbfcfe"/><rect x="570.83" y="76.11" width="38.06" height="38.06" fill="#dd71ea"/><rect x="532.78" y="114.17" width="38.06" height="38.06" fill="#ea9ed4"/><rect x="1141.6666666666667" y="76.11111111111111" width="76.11111111111111" height="76.11111111111111" fill="#fbfcfe"/><rect x="0" y="152.22222222222223" width="76.11111111111111" height="76.11111111111111" fill="#fbfcfe"/><rect x="0" y="152.22" width="38.06" height="38.06" fill="#fdbccd"/><rect x="38.06" y="152.22" width="38.06" height="38.06" fill="#fdc2d1"/><rect x="76.11111111111111" y="152.22222222222223" width="76.11111111111111" height="76.11111111111111" fill="#fbfcfe"/><rect x="76.11" y="152.22" width="38.06" height="38.06" fill="#fda6bb"/><rect x="761.1111111111111" y="152.22222222222223" width="76.11111111111111" height="76.11111111111111" fill="#fbfcfe"/><rect x="837.2222222222223" y="152.22222222222223" width="76.11111111111111" height="76.11111111111111" fill="#fbfcfe"/><rect x="1217.7777777777778" y="152.22222222222223" width="76.11111111111111" height="76.11111111111111" fill="#fbfcfe"/><rect x="1217.78" y="152.22" width="38.06" height="38.06" fill="#fcd2de"/><rect x="0" y="228.33333333333334" width="76.11111111111111" height="76.11111111111111" fill="#fbfcfe"/><rect x="76.11111111111111" y="228.33333333333334" width="76.11111111111111" height="76.11111111111111" fill="#fbfcfe"/><rect x="76.11" y="266.39" width="38.06" height="38.06" fill="#f3d1eb"/><rect x="114.17" y="266.39" width="38.06" height="38.06" fill="#fbfbfd"/><rect x="228.33333333333334" y="228.33333333333334" width="76.11111111111111" height="76.11111111111111" fill="#fbfcfe"/><rect x="266.39" y="228.33" width="38.06" height="38.06" fill="#ce2be1"/><rect x="304.44444444444446" y="228.33333333333334" width="76.11111111111111" height="76.11111111111111" fill="#fbfcfe"/><rect x="304.44" y="266.39" width="38.06" height="38.06" fill="#f0c2e4"/><rect x="380.55555555555554" y="228.33333333333334" width="76.11111111111111" height="76.11111111111111" fill="#fbfcfe"/><rect x="380.56" y="228.33" width="38.06" height="38.06" fill="#fe90ab"/><rect x="418.61" y="228.33" width="38.06" height="38.06" fill="#dc6bea"/><rect x="532.7777777777778" y="228.33333333333334" width="76.11111111111111" height="76.11111111111111" fill="#fbfcfe"/><rect x="570.83" y="228.33" width="38.06" height="38.06" fill="#eeb8e0"/><rect x="570.83" y="266.39" width="38.06" height="38.06" fill="#faf9fc"/><rect x="608.8888888888889" y="228.33333333333334" width="76.11111111111111" height="76.11111111111111" fill="#fbfcfe"/><rect x="608.89" y="228.33" width="38.06" height="38.06" fill="#eaa1d6"/><rect x="646.94" y="228.33" width="38.06" height="38.06" fill="#f3d2eb"/><rect x="608.89" y="266.39" width="38.06" height="38.06" fill="#ff6c8e"/><rect x="685" y="228.33333333333334" width="76.11111111111111" height="76.11111111111111" fill="#fbfcfe"/><rect x="685" y="266.39" width="38.06" height="38.06" fill="#ff688b"/><rect x="761.1111111111111" y="228.33333333333334" width="76.11111111111111" height="76.11111111111111" fill="#fbfcfe"/><rect x="761.11" y="266.39" width="38.06" height="38.06" fill="#fcc8d6"/><rect x="837.2222222222223" y="228.33333333333334" width="76.11111111111111" height="76.11111111111111" fill="#fbfcfe"/><rect x="875.28" y="228.33" width="38.06" height="38.06" fill="#faf5fb"/><rect x="837.22" y="266.39" width="38.06" height="38.06" fill="#f3d2ec"/><rect x="913.3333333333334" y="228.33333333333334" width="76.11111111111111" height="76.11111111111111" fill="#fbfcfe"/><rect x="951.39" y="228.33" width="38.06" height="38.06" fill="#ff7293"/><rect x="913.33" y="266.39" width="38.06" height="38.06" fill="#fcc4d2"/><rect x="989.4444444444445" y="228.33333333333334" width="76.11111111111111" height="76.11111111111111" fill="#fbfcfe"/><rect x="989.44" y="266.39" width="38.06" height="38.06" fill="#f3d1eb"/><rect x="0" y="304.44444444444446" width="76.11111111111111" height="76.11111111111111" fill="#fbfcfe"/><rect x="38.06" y="304.44" width="38.06" height="38.06" fill="#f3d7f9"/><rect x="38.06" y="342.5" width="38.06" height="38.06" fill="#f8ecf7"/><rect x="76.11111111111111" y="304.44444444444446" width="76.11111111111111" height="76.11111111111111" fill="#fbfcfe"/><rect x="76.11" y="304.44" width="38.06" height="38.06" fill="#fda6bb"/><rect x="152.22222222222223" y="304.44444444444446" width="76.11111111111111" height="76.11111111111111" fill="#fbfcfe"/><rect x="190.28" y="304.44" width="38.06" height="38.06" fill="#fccfdc"/><rect x="152.22" y="342.5" width="38.06" height="38.06" fill="#fbfbfe"/><rect x="304.44444444444446" y="304.44444444444446" width="76.11111111111111" height="76.11111111111111" fill="#fbfcfe"/><rect x="304.44" y="342.5" width="38.06" height="38.06" fill="#f2cde9"/><rect x="608.8888888888889" y="304.44444444444446" width="76.11111111111111" height="76.11111111111111" fill="#fbfcfe"/><rect x="646.94" y="304.44" width="38.06" height="38.06" fill="#d754e6"/><rect x="608.89" y="342.5" width="38.06" height="38.06" fill="#d64ee5"/><rect x="646.94" y="342.5" width="38.06" height="38.06" fill="#e79ff1"/><rect x="837.2222222222223" y="304.44444444444446" width="76.11111111111111" height="76.11111111111111" fill="#fbfcfe"/><rect x="875.28" y="342.5" width="38.06" height="38.06" fill="#f3d0ea"/><rect x="1065.5555555555557" y="304.44444444444446" width="76.11111111111111" height="76.11111111111111" fill="#fbfcfe"/><rect x="1103.61" y="304.44" width="38.06" height="38.06" fill="#f4d6ed"/><rect x="1103.61" y="342.5" width="38.06" height="38.06" fill="#f0c2e4"/><rect x="1217.7777777777778" y="304.44444444444446" width="76.11111111111111" height="76.11111111111111" fill="#fbfcfe"/><rect x="1217.78" y="304.44" width="38.06" height="38.06" fill="#eeb7df"/><rect x="1255.83" y="304.44" width="38.06" height="38.06" fill="#d33fe3"/><rect x="1255.83" y="342.5" width="38.06" height="38.06" fill="#fdb8ca"/><rect x="0" y="380.55555555555554" width="76.11111111111111" height="76.11111111111111" fill="#fbfcfe"/><rect x="0" y="418.61" width="38.06" height="38.06" fill="#ff6c8f"/><rect x="38.06" y="418.61" width="38.06" height="38.06" fill="#ff6b8e"/><rect x="152.22222222222223" y="380.55555555555554" width="76.11111111111111" height="76.11111111111111" fill="#fbfcfe"/><rect x="304.44444444444446" y="380.55555555555554" width="76.11111111111111" height="76.11111111111111" fill="#fbfcfe"/><rect x="342.5" y="380.56" width="38.06" height="38.06" fill="#fdb3c6"/><rect x="380.55555555555554" y="380.55555555555554" width="76.11111111111111" height="76.11111111111111" fill="#fbfcfe"/><rect x="380.56" y="380.56" width="38.06" height="38.06" fill="#db65e9"/><rect x="418.61" y="380.56" width="38.06" height="38.06" fill="#e490ef"/><rect x="418.61" y="418.61" width="38.06" height="38.06" fill="#f9f2fa"/><rect x="456.6666666666667" y="380.55555555555554" width="76.11111111111111" height="76.11111111111111" fill="#fbfcfe"/><rect x="456.67" y="380.56" width="38.06" height="38.06" fill="#f6dff1"/><rect x="494.72" y="418.61" width="38.06" height="38.06" fill="#fdadc1"/><rect x="608.8888888888889" y="380.55555555555554" width="76.11111111111111" height="76.11111111111111" fill="#fbfcfe"/><rect x="608.89" y="380.56" width="38.06" height="38.06" fill="#f4d5ed"/><rect x="608.89" y="418.61" width="38.06" height="38.06" fill="#d341e4"/><rect x="646.94" y="418.61" width="38.06" height="38.06" fill="#f1cdf7"/><rect x="685" y="380.55555555555554" width="76.11111111111111" height="76.11111111111111" fill="#fbfcfe"/><rect x="685" y="418.61" width="38.06" height="38.06" fill="#f4d6ed"/><rect x="723.06" y="418.61" width="38.06" height="38.06" fill="#f8ecf7"/><rect x="761.1111111111111" y="380.55555555555554" width="76.11111111111111" height="76.11111111111111" fill="#fbfcfe"/><rect x="761.11" y="380.56" width="38.06" height="38.06" fill="#f1cdf7"/><rect x="799.17" y="380.56" width="38.06" height="38.06" fill="#fdb4c6"/><rect x="761.11" y="418.61" width="38.06" height="38.06" fill="#f8edf8"/><rect x="837.2222222222223" y="380.55555555555554" width="76.11111111111111" height="76.11111111111111" fill="#fbfcfe"/><rect x="837.22" y="380.56" width="38.06" height="38.06" fill="#f4d4ec"/><rect x="837.22" y="418.61" width="38.06" height="38.06" fill="#fda0b7"/><rect x="875.28" y="418.61" width="38.06" height="38.06" fill="#f0c1e4"/><rect x="913.3333333333334" y="380.55555555555554" width="76.11111111111111" height="76.11111111111111" fill="#fbfcfe"/><rect x="913.33" y="418.61" width="38.06" height="38.06" fill="#ea9ed4"/><rect x="951.39" y="418.61" width="38.06" height="38.06" fill="#fcdee6"/><rect x="989.4444444444445" y="380.55555555555554" width="76.11111111111111" height="76.11111111111111" fill="#fbfcfe"/><rect x="1065.5555555555557" y="380.55555555555554" width="76.11111111111111" height="76.11111111111111" fill="#fbfcfe"/><rect x="1103.61" y="418.61" width="38.06" height="38.06" fill="#eba7d9"/><rect x="0" y="456.6666666666667" width="76.11111111111111" height="76.11111111111111" fill="#fbfcfe"/><rect x="0" y="456.67" width="38.06" height="38.06" fill="#fce6ed"/><rect x="38.06" y="456.67" width="38.06" height="38.06" fill="#edb8f4"/><rect x="38.06" y="494.72" width="38.06" height="38.06" fill="#f2d3f8"/><rect x="76.11111111111111" y="456.6666666666667" width="76.11111111111111" height="76.11111111111111" fill="#fbfcfe"/><rect x="76.11" y="456.67" width="38.06" height="38.06" fill="#fbeef3"/><rect x="114.17" y="456.67" width="38.06" height="38.06" fill="#de74eb"/><rect x="76.11" y="494.72" width="38.06" height="38.06" fill="#d033e2"/><rect x="152.22222222222223" y="456.6666666666667" width="76.11111111111111" height="76.11111111111111" fill="#fbfcfe"/><rect x="152.22" y="494.72" width="38.06" height="38.06" fill="#f7e8fb"/><rect x="190.28" y="494.72" width="38.06" height="38.06" fill="#f9f2f9"/><rect x="304.44444444444446" y="456.6666666666667" width="76.11111111111111" height="76.11111111111111" fill="#fbfcfe"/><rect x="304.44" y="456.67" width="38.06" height="38.06" fill="#eeb7df"/><rect x="342.5" y="456.67" width="38.06" height="38.06" fill="#f2d1f8"/><rect x="342.5" y="494.72" width="38.06" height="38.06" fill="#f8ecf7"/><rect x="380.55555555555554" y="456.6666666666667" width="76.11111111111111" height="76.11111111111111" fill="#fbfcfe"/><rect x="380.56" y="456.67" width="38.06" height="38.06" fill="#da62e8"/><rect x="418.61" y="456.67" width="38.06" height="38.06" fill="#f7e6f4"/><rect x="380.56" y="494.72" width="38.06" height="38.06" fill="#fe7f9d"/><rect x="418.61" y="494.72" width="38.06" height="38.06" fill="#fe97b0"/><rect x="456.6666666666667" y="456.6666666666667" width="76.11111111111111" height="76.11111111111111" fill="#fbfcfe"/><rect x="456.67" y="456.67" width="38.06" height="38.06" fill="#faf9fd"/><rect x="494.72" y="456.67" width="38.06" height="38.06" fill="#ff7394"/><rect x="456.67" y="494.72" width="38.06" height="38.06" fill="#faf5fb"/><rect x="494.72" y="494.72" width="38.06" height="38.06" fill="#ff7092"/><rect x="532.7777777777778" y="456.6666666666667" width="76.11111111111111" height="76.11111111111111" fill="#fbfcfe"/><rect x="532.78" y="456.67" width="38.06" height="38.06" fill="#eba5d7"/><rect x="570.83" y="456.67" width="38.06" height="38.06" fill="#fe7999"/><rect x="532.78" y="494.72" width="38.06" height="38.06" fill="#e79df1"/><rect x="570.83" y="494.72" width="38.06" height="38.06" fill="#efc4f6"/><rect x="608.8888888888889" y="456.6666666666667" width="76.11111111111111" height="76.11111111111111" fill="#fbfcfe"/><rect x="608.89" y="456.67" width="38.06" height="38.06" fill="#f0c2e4"/><rect x="608.89" y="494.72" width="38.06" height="38.06" fill="#fbedf2"/><rect x="646.94" y="494.72" width="38.06" height="38.06" fill="#f4ddfa"/><rect x="761.1111111111111" y="456.6666666666667" width="76.11111111111111" height="76.11111111111111" fill="#fbfcfe"/><rect x="799.17" y="456.67" width="38.06" height="38.06" fill="#edaedb"/><rect x="761.11" y="494.72" width="38.06" height="38.06" fill="#f5daef"/><rect x="799.17" y="494.72" width="38.06" height="38.06" fill="#dc6bea"/><rect x="837.2222222222223" y="456.6666666666667" width="76.11111111111111" height="76.11111111111111" fill="#fbfcfe"/><rect x="837.22" y="456.67" width="38.06" height="38.06" fill="#d23be3"/><rect x="837.22" y="494.72" width="38.06" height="38.06" fill="#ff7192"/><rect x="875.28" y="494.72" width="38.06" height="38.06" fill="#fe7e9c"/><rect x="913.3333333333334" y="456.6666666666667" width="76.11111111111111" height="76.11111111111111" fill="#fbfcfe"/><rect x="913.33" y="456.67" width="38.06" height="38.06" fill="#e595ef"/><rect x="951.39" y="494.72" width="38.06" height="38.06" fill="#faf4fb"/><rect x="989.4444444444445" y="456.6666666666667" width="76.11111111111111" height="76.11111111111111" fill="#fbfcfe"/><rect x="989.44" y="456.67" width="38.06" height="38.06" fill="#fdb7c9"/><rect x="1027.5" y="456.67" width="38.06" height="38.06" fill="#ecabda"/><rect x="989.44" y="494.72" width="38.06" height="38.06" fill="#f5dbef"/><rect x="1027.5" y="494.72" width="38.06" height="38.06" fill="#ff668a"/><rect x="1065.5555555555557" y="456.6666666666667" width="76.11111111111111" height="76.11111111111111" fill="#fbfcfe"/><rect x="1065.56" y="456.67" width="38.06" height="38.06" fill="#f1c5e5"/><rect x="1103.61" y="456.67" width="38.06" height="38.06" fill="#f8eaf6"/><rect x="1065.56" y="494.72" width="38.06" height="38.06" fill="#fcd5df"/><rect x="1141.6666666666667" y="456.6666666666667" width="76.11111111111111" height="76.11111111111111" fill="#fbfcfe"/><rect x="1141.67" y="456.67" width="38.06" height="38.06" fill="#e9a8f2"/><rect x="1179.72" y="456.67" width="38.06" height="38.06" fill="#ecacdb"/><rect x="1179.72" y="494.72" width="38.06" height="38.06" fill="#fdb5c7"/><rect x="1217.7777777777778" y="456.6666666666667" width="76.11111111111111" height="76.11111111111111" fill="#fbfcfe"/><rect x="1217.78" y="456.67" width="38.06" height="38.06" fill="#df77eb"/><rect x="1255.83" y="456.67" width="38.06" height="38.06" fill="#fcd9e3"/><rect x="1255.83" y="494.72" width="38.06" height="38.06" fill="#ff7293"/><rect x="0" y="532.7777777777778" width="76.11111111111111" height="76.11111111111111" fill="#fbfcfe"/><rect x="0" y="532.78" width="38.06" height="38.06" fill="#fcd4df"/><rect x="38.06" y="532.78" width="38.06" height="38.06" fill="#f4d6ed"/><rect x="38.06" y="570.83" width="38.06" height="38.06" fill="#fda9bd"/><rect x="76.11111111111111" y="532.7777777777778" width="76.11111111111111" height="76.11111111111111" fill="#fbfcfe"/><rect x="76.11" y="532.78" width="38.06" height="38.06" fill="#fccfdb"/><rect x="114.17" y="532.78" width="38.06" height="38.06" fill="#f9f4fa"/><rect x="76.11" y="570.83" width="38.06" height="38.06" fill="#efc2f6"/><rect x="114.17" y="570.83" width="38.06" height="38.06" fill="#fda2b9"/><rect x="152.22222222222223" y="532.7777777777778" width="76.11111111111111" height="76.11111111111111" fill="#fbfcfe"/><rect x="152.22" y="532.78" width="38.06" height="38.06" fill="#df7aec"/><rect x="190.28" y="532.78" width="38.06" height="38.06" fill="#f4d9ee"/><rect x="152.22" y="570.83" width="38.06" height="38.06" fill="#fcdae4"/><rect x="190.28" y="570.83" width="38.06" height="38.06" fill="#ce2be1"/><rect x="228.33333333333334" y="532.7777777777778" width="76.11111111111111" height="76.11111111111111" fill="#fbfcfe"/><rect x="228.33" y="532.78" width="38.06" height="38.06" fill="#f0c8f7"/><rect x="266.39" y="532.78" width="38.06" height="38.06" fill="#edb1dd"/><rect x="228.33" y="570.83" width="38.06" height="38.06" fill="#dd70ea"/><rect x="304.44444444444446" y="532.7777777777778" width="76.11111111111111" height="76.11111111111111" fill="#fbfcfe"/><rect x="304.44" y="532.78" width="38.06" height="38.06" fill="#fcd9e3"/><rect x="342.5" y="532.78" width="38.06" height="38.06" fill="#faf9fd"/><rect x="304.44" y="570.83" width="38.06" height="38.06" fill="#fccfdb"/><rect x="342.5" y="570.83" width="38.06" height="38.06" fill="#f7e8f5"/><rect x="380.55555555555554" y="532.7777777777778" width="76.11111111111111" height="76.11111111111111" fill="#fbfcfe"/><rect x="380.56" y="532.78" width="38.06" height="38.06" fill="#fe7d9b"/><rect x="418.61" y="532.78" width="38.06" height="38.06" fill="#fcc8d6"/><rect x="380.56" y="570.83" width="38.06" height="38.06" fill="#fdb3c6"/><rect x="418.61" y="570.83" width="38.06" height="38.06" fill="#f7e9f5"/><rect x="456.6666666666667" y="532.7777777777778" width="76.11111111111111" height="76.11111111111111" fill="#fbfcfe"/><rect x="456.67" y="532.78" width="38.06" height="38.06" fill="#f9f2f9"/><rect x="494.72" y="532.78" width="38.06" height="38.06" fill="#e183ed"/><rect x="456.67" y="570.83" width="38.06" height="38.06" fill="#eca9d9"/><rect x="494.72" y="570.83" width="38.06" height="38.06" fill="#eba7d8"/><rect x="532.7777777777778" y="532.7777777777778" width="76.11111111111111" height="76.11111111111111" fill="#fbfcfe"/><rect x="532.78" y="532.78" width="38.06" height="38.06" fill="#da60e8"/><rect x="570.83" y="532.78" width="38.06" height="38.06" fill="#dc69e9"/><rect x="532.78" y="570.83" width="38.06" height="38.06" fill="#eaa0d5"/><rect x="570.83" y="570.83" width="38.06" height="38.06" fill="#faf8fc"/><rect x="608.8888888888889" y="532.7777777777778" width="76.11111111111111" height="76.11111111111111" fill="#fbfcfe"/><rect x="608.89" y="532.78" width="38.06" height="38.06" fill="#ff7192"/><rect x="646.94" y="532.78" width="38.06" height="38.06" fill="#f3d0eb"/><rect x="608.89" y="570.83" width="38.06" height="38.06" fill="#ff6a8d"/><rect x="646.94" y="570.83" width="38.06" height="38.06" fill="#fdb9ca"/><rect x="685" y="532.7777777777778" width="76.11111111111111" height="76.11111111111111" fill="#fbfcfe"/><rect x="685" y="532.78" width="38.06" height="38.06" fill="#eaa0d5"/><rect x="723.06" y="532.78" width="38.06" height="38.06" fill="#edb0dc"/><rect x="685" y="570.83" width="38.06" height="38.06" fill="#faf5fb"/><rect x="723.06" y="570.83" width="38.06" height="38.06" fill="#f7eafb"/><rect x="761.1111111111111" y="532.7777777777778" width="76.11111111111111" height="76.11111111111111" fill="#fbfcfe"/><rect x="761.11" y="532.78" width="38.06" height="38.06" fill="#f3d1eb"/><rect x="799.17" y="532.78" width="38.06" height="38.06" fill="#fdb2c5"/><rect x="761.11" y="570.83" width="38.06" height="38.06" fill="#eba3d7"/><rect x="799.17" y="570.83" width="38.06" height="38.06" fill="#f7e9f6"/><rect x="837.2222222222223" y="532.7777777777778" width="76.11111111111111" height="76.11111111111111" fill="#fbfcfe"/><rect x="837.22" y="532.78" width="38.06" height="38.06" fill="#fcd2de"/><rect x="875.28" y="532.78" width="38.06" height="38.06" fill="#efbee3"/><rect x="837.22" y="570.83" width="38.06" height="38.06" fill="#ff7293"/><rect x="875.28" y="570.83" width="38.06" height="38.06" fill="#f6e0f1"/><rect x="913.3333333333334" y="532.7777777777778" width="76.11111111111111" height="76.11111111111111" fill="#fbfcfe"/><rect x="913.33" y="532.78" width="38.06" height="38.06" fill="#ebb1f3"/><rect x="951.39" y="532.78" width="38.06" height="38.06" fill="#f5def0"/><rect x="951.39" y="570.83" width="38.06" height="38.06" fill="#cd23df"/><rect x="989.4444444444445" y="532.7777777777778" width="76.11111111111111" height="76.11111111111111" fill="#fbfcfe"/><rect x="1027.5" y="532.78" width="38.06" height="38.06" fill="#f1c4e5"/><rect x="989.44" y="570.83" width="38.06" height="38.06" fill="#faf6fd"/><rect x="1065.5555555555557" y="532.7777777777778" width="76.11111111111111" height="76.11111111111111" fill="#fbfcfe"/><rect x="1065.56" y="532.78" width="38.06" height="38.06" fill="#d651e6"/><rect x="1103.61" y="532.78" width="38.06" height="38.06" fill="#f1c4e5"/><rect x="1065.56" y="570.83" width="38.06" height="38.06" fill="#fbedf2"/><rect x="1103.61" y="570.83" width="38.06" height="38.06" fill="#f0c7f7"/><rect x="1141.6666666666667" y="532.7777777777778" width="76.11111111111111" height="76.11111111111111" fill="#fbfcfe"/><rect x="1141.67" y="532.78" width="38.06" height="38.06" fill="#e597f0"/><rect x="1141.67" y="570.83" width="38.06" height="38.06" fill="#ff6489"/><rect x="1179.72" y="570.83" width="38.06" height="38.06" fill="#f3d6f9"/><rect x="1217.7777777777778" y="532.7777777777778" width="76.11111111111111" height="76.11111111111111" fill="#fbfcfe"/><rect x="1217.78" y="532.78" width="38.06" height="38.06" fill="#fcd8e3"/><rect x="1255.83" y="532.78" width="38.06" height="38.06" fill="#d032e2"/><rect x="1217.78" y="570.83" width="38.06" height="38.06" fill="#f6dff1"/><rect x="1255.83" y="570.83" width="38.06" height="38.06" fill="#ff6589"/><rect x="0" y="608.8888888888889" width="76.11111111111111" height="76.11111111111111" fill="#fbfcfe"/><rect x="0" y="608.89" width="38.06" height="38.06" fill="#f7e5f4"/><rect x="38.06" y="608.89" width="38.06" height="38.06" fill="#f3d0eb"/><rect x="0" y="646.94" width="38.06" height="38.06" fill="#f5def1"/><rect x="38.06" y="646.94" width="38.06" height="38.06" fill="#edbbf5"/><rect x="76.11111111111111" y="608.8888888888889" width="76.11111111111111" height="76.11111111111111" fill="#fbfcfe"/><rect x="76.11" y="608.89" width="38.06" height="38.06" fill="#fdb3c6"/><rect x="114.17" y="608.89" width="38.06" height="38.06" fill="#f6e0f1"/><rect x="76.11" y="646.94" width="38.06" height="38.06" fill="#dd71ea"/><rect x="114.17" y="646.94" width="38.06" height="38.06" fill="#f2d1f8"/><rect x="152.22222222222223" y="608.8888888888889" width="76.11111111111111" height="76.11111111111111" fill="#fbfcfe"/><rect x="152.22" y="608.89" width="38.06" height="38.06" fill="#e48fef"/><rect x="190.28" y="608.89" width="38.06" height="38.06" fill="#fcdfe8"/><rect x="152.22" y="646.94" width="38.06" height="38.06" fill="#fe89a5"/><rect x="190.28" y="646.94" width="38.06" height="38.06" fill="#f1c7e6"/><rect x="228.33333333333334" y="608.8888888888889" width="76.11111111111111" height="76.11111111111111" fill="#fbfcfe"/><rect x="228.33" y="608.89" width="38.06" height="38.06" fill="#f1c8e7"/><rect x="266.39" y="608.89" width="38.06" height="38.06" fill="#ea9ed4"/><rect x="228.33" y="646.94" width="38.06" height="38.06" fill="#e285ed"/><rect x="266.39" y="646.94" width="38.06" height="38.06" fill="#d754e6"/><rect x="304.44444444444446" y="608.8888888888889" width="76.11111111111111" height="76.11111111111111" fill="#fbfcfe"/><rect x="304.44" y="608.89" width="38.06" height="38.06" fill="#f3d6f9"/><rect x="342.5" y="608.89" width="38.06" height="38.06" fill="#faf7fc"/><rect x="304.44" y="646.94" width="38.06" height="38.06" fill="#f9f3fa"/><rect x="342.5" y="646.94" width="38.06" height="38.06" fill="#f2cae8"/><rect x="380.55555555555554" y="608.8888888888889" width="76.11111111111111" height="76.11111111111111" fill="#fbfcfe"/><rect x="380.56" y="608.89" width="38.06" height="38.06" fill="#fbfafd"/><rect x="418.61" y="608.89" width="38.06" height="38.06" fill="#f8edf7"/><rect x="380.56" y="646.94" width="38.06" height="38.06" fill="#f4d9f9"/><rect x="418.61" y="646.94" width="38.06" height="38.06" fill="#fe91ab"/><rect x="456.6666666666667" y="608.8888888888889" width="76.11111111111111" height="76.11111111111111" fill="#fbfcfe"/><rect x="456.67" y="608.89" width="38.06" height="38.06" fill="#edb9f5"/><rect x="494.72" y="608.89" width="38.06" height="38.06" fill="#fbfbfe"/><rect x="456.67" y="646.94" width="38.06" height="38.06" fill="#fcceda"/><rect x="494.72" y="646.94" width="38.06" height="38.06" fill="#fbfcfe"/><rect x="532.7777777777778" y="608.8888888888889" width="76.11111111111111" height="76.11111111111111" fill="#fbfcfe"/><rect x="532.78" y="608.89" width="38.06" height="38.06" fill="#f1c8e7"/><rect x="570.83" y="608.89" width="38.06" height="38.06" fill="#d64fe6"/><rect x="532.78" y="646.94" width="38.06" height="38.06" fill="#e07eec"/><rect x="570.83" y="646.94" width="38.06" height="38.06" fill="#fe7898"/><rect x="608.8888888888889" y="608.8888888888889" width="76.11111111111111" height="76.11111111111111" fill="#fbfcfe"/><rect x="608.89" y="608.89" width="38.06" height="38.06" fill="#eaa0d5"/><rect x="646.94" y="608.89" width="38.06" height="38.06" fill="#dd70ea"/><rect x="608.89" y="646.94" width="38.06" height="38.06" fill="#cc22df"/><rect x="646.94" y="646.94" width="38.06" height="38.06" fill="#fe87a3"/><rect x="685" y="608.8888888888889" width="76.11111111111111" height="76.11111111111111" fill="#fbfcfe"/><rect x="685" y="608.89" width="38.06" height="38.06" fill="#ff688c"/><rect x="723.06" y="608.89" width="38.06" height="38.06" fill="#f7e7f5"/><rect x="685" y="646.94" width="38.06" height="38.06" fill="#ecb8f4"/><rect x="723.06" y="646.94" width="38.06" height="38.06" fill="#fbf0f4"/><rect x="761.1111111111111" y="608.8888888888889" width="76.11111111111111" height="76.11111111111111" fill="#fbfcfe"/><rect x="761.11" y="608.89" width="38.06" height="38.06" fill="#efbce2"/><rect x="799.17" y="608.89" width="38.06" height="38.06" fill="#e492ef"/><rect x="761.11" y="646.94" width="38.06" height="38.06" fill="#e38bee"/><rect x="799.17" y="646.94" width="38.06" height="38.06" fill="#f1c7e7"/><rect x="837.2222222222223" y="608.8888888888889" width="76.11111111111111" height="76.11111111111111" fill="#fbfcfe"/><rect x="837.22" y="608.89" width="38.06" height="38.06" fill="#d548e5"/><rect x="875.28" y="608.89" width="38.06" height="38.06" fill="#f4d6ed"/><rect x="837.22" y="646.94" width="38.06" height="38.06" fill="#faf6fb"/><rect x="875.28" y="646.94" width="38.06" height="38.06" fill="#e182ed"/><rect x="913.3333333333334" y="608.8888888888889" width="76.11111111111111" height="76.11111111111111" fill="#fbfcfe"/><rect x="913.33" y="608.89" width="38.06" height="38.06" fill="#edb2dd"/><rect x="951.39" y="608.89" width="38.06" height="38.06" fill="#e285ed"/><rect x="913.33" y="646.94" width="38.06" height="38.06" fill="#fda8bd"/><rect x="951.39" y="646.94" width="38.06" height="38.06" fill="#d034e2"/><rect x="989.4444444444445" y="608.8888888888889" width="76.11111111111111" height="76.11111111111111" fill="#fbfcfe"/><rect x="989.44" y="608.89" width="38.06" height="38.06" fill="#d95ce7"/><rect x="1027.5" y="608.89" width="38.06" height="38.06" fill="#e288ee"/><rect x="989.44" y="646.94" width="38.06" height="38.06" fill="#f7e7fb"/><rect x="1027.5" y="646.94" width="38.06" height="38.06" fill="#fda9be"/><rect x="1065.5555555555557" y="608.8888888888889" width="76.11111111111111" height="76.11111111111111" fill="#fbfcfe"/><rect x="1065.56" y="608.89" width="38.06" height="38.06" fill="#fe91ab"/><rect x="1103.61" y="608.89" width="38.06" height="38.06" fill="#efc4f6"/><rect x="1065.56" y="646.94" width="38.06" height="38.06" fill="#ff6589"/><rect x="1103.61" y="646.94" width="38.06" height="38.06" fill="#cf30e1"/><rect x="1141.6666666666667" y="608.8888888888889" width="76.11111111111111" height="76.11111111111111" fill="#fbfcfe"/><rect x="1141.67" y="608.89" width="38.06" height="38.06" fill="#d859e7"/><rect x="1179.72" y="608.89" width="38.06" height="38.06" fill="#fcc7d5"/><rect x="1141.67" y="646.94" width="38.06" height="38.06" fill="#eca9d9"/><rect x="1179.72" y="646.94" width="38.06" height="38.06" fill="#cc21df"/><rect x="1217.7777777777778" y="608.8888888888889" width="76.11111111111111" height="76.11111111111111" fill="#fbfcfe"/><rect x="1217.78" y="608.89" width="38.06" height="38.06" fill="#ff7495"/><rect x="1255.83" y="608.89" width="38.06" height="38.06" fill="#ff6489"/><rect x="1217.78" y="646.94" width="38.06" height="38.06" fill="#f8e9f6"/><rect x="1255.83" y="646.94" width="38.06" height="38.06" fill="#f7e7f5"/></g></svg>